<?xml version="1.0" encoding="UTF-8" standalone="no"?>
<!-- Created with Inkscape (http://www.inkscape.org/) -->

<svg
   xmlns:dc="http://purl.org/dc/elements/1.1/"
   xmlns:cc="http://creativecommons.org/ns#"
   xmlns:rdf="http://www.w3.org/1999/02/22-rdf-syntax-ns#"
   xmlns:svg="http://www.w3.org/2000/svg"
   xmlns="http://www.w3.org/2000/svg"
   xmlns:sodipodi="http://sodipodi.sourceforge.net/DTD/sodipodi-0.dtd"
   xmlns:inkscape="http://www.inkscape.org/namespaces/inkscape"
   version="1.1"
   id="svg2"
   xml:space="preserve"
   width="513.46899"
   height="500.00006"
   viewBox="0 0 513.46899 500.00006"
   sodipodi:docname="icon-monochrome.svg"
   inkscape:version="0.92.5 (2060ec1f9f, 2020-04-08)"><metadata
     id="metadata8"><rdf:RDF><cc:Work
         rdf:about=""><dc:format>image/svg+xml</dc:format><dc:type
           rdf:resource="http://purl.org/dc/dcmitype/StillImage" /><dc:title></dc:title></cc:Work></rdf:RDF></metadata><defs
     id="defs6" /><sodipodi:namedview
     pagecolor="#ffffff"
     bordercolor="#666666"
     borderopacity="1"
     objecttolerance="10"
     gridtolerance="10"
     guidetolerance="10"
     inkscape:pageopacity="0"
     inkscape:pageshadow="2"
     inkscape:window-width="1848"
     inkscape:window-height="1016"
     id="namedview4"
     showgrid="false"
     inkscape:zoom="1.0752035"
     inkscape:cx="41.321808"
     inkscape:cy="266.77669"
     inkscape:window-x="72"
     inkscape:window-y="27"
     inkscape:window-maximized="1"
     inkscape:current-layer="g10"
     fit-margin-top="0"
     fit-margin-left="0"
     fit-margin-right="0"
     fit-margin-bottom="0" /><g
     id="g10"
     inkscape:groupmode="layer"
     inkscape:label="ink_ext_XXXXXX"
     transform="matrix(1.3333333,0,0,-1.3333333,144.03431,359.74402)"><path
       style="fill:#000000;fill-opacity:1;fill-rule:nonzero;stroke:none;stroke-width:0.30373722"
       d="m 257.23242,0 c -6.97168,0 -13.94459,1.6577111 -20.58398,4.6464844 L 68.652344,84.992188 c -13.28,6.308613 -22.574988,17.928342 -25.894532,32.207032 L 1.2558594,297.47656 c -3.3197599,14.27565 -0.0011,28.88622 9.2949216,40.50782 L 126.75391,482.4043 C 135.71871,493.6936 149.33177,500 163.60742,500 h 186.25586 c 14.27565,0 27.88828,-6.3064 36.85156,-17.5957 L 502.91602,337.98438 c 9.2974,-11.28931 12.61672,-26.23217 9.29687,-40.50782 L 470.71484,117.19922 C 467.39195,102.92053 458.09579,91.300801 444.81641,84.992188 L 277.48438,4.6464844 C 271.17728,1.6577111 264.20532,0 257.23242,0 Z m 0,15.603516 c 4.6484,0 9.29687,0.995761 13.61328,2.988281 l 167.99414,80.013672 c 8.63222,4.316091 15.27116,12.285721 17.26368,21.580081 l 41.5,180.28125 c 2.32662,9.62847 8.9e-4,19.5867 -6.30469,27.22265 L 375.09375,472.11523 c -5.97451,7.63495 -15.27192,11.95118 -24.90039,11.95118 H 163.93945 c -9.62816,0 -18.92405,-4.31623 -24.90039,-11.95118 L 22.835938,327.68945 C 16.859664,320.0535 14.535253,310.09527 16.527344,300.4668 L 58.029297,120.18555 c 2.322981,-9.62847 8.630852,-17.59505 17.263672,-21.580081 L 243.28711,18.259766 c 4.31641,-1.661454 9.29783,-2.65625 13.94531,-2.65625 z m -0.49804,128.820314 c -3.99384,0 -7.98593,1.99538 -10.98047,4.99023 -2.99364,2.99484 -4.49024,6.98624 -4.49024,11.47852 v 1 2.99414 c 0,3.49297 0.50027,6.48561 1.49805,9.48047 0.49843,1.49742 0.49675,2.99467 0.99609,4.99023 v 0.5 c 0.99778,9.98081 2.49583,18.96427 1.49805,26.94922 -0.49965,3.49419 -2.49476,4.99207 -3.99219,6.48828 -0.49934,0.49966 -0.50035,0.49872 -1,0.99805 l -0.49805,6.48828 c -8.98393,0.99777 -17.96528,1.99663 -26.94921,3.99219 -38.42732,8.48459 -72.36637,27.94901 -98.81641,55.89648 l -4.99219,-3.49219 h -0.99804 c -0.99778,0 -1.99515,0.49805 -2.99415,0.49805 -1.4962,0 -2.9928,-0.49875 -4.49023,-1.49805 -6.488738,-4.49075 -12.97572,-10.97924 -19.96289,-18.46484 -0.997777,-0.99778 -1.996717,-2.49515 -3.494141,-3.49414 -1.996768,-2.4952 -3.991126,-4.49143 -6.486328,-6.98633 -0.499648,-0.49965 -1.499055,-0.99801 -2.498047,-1.99609 -0.498128,-0.49935 -0.996093,-0.49962 -0.996093,-0.99805 -2.994546,-2.4952 -6.988148,-3.99219 -10.980469,-3.99219 -4.490755,0 -8.983618,1.99409 -11.478516,5.48829 -4.991617,6.48752 -3.493031,16.4711 3.494141,22.45898 0.499344,0 0.499615,0.49805 0.998047,0.49805 0.998992,0.49934 1.496798,1.49796 2.496094,1.99609 2.994545,1.99677 5.489092,3.49476 8.482421,4.99219 1.497426,0.49813 2.995067,1.49636 4.492188,2.49414 8.982724,5.48974 16.46959,9.98291 22.458984,15.47265 2.495202,2.49521 2.494141,4.98918 2.494141,7.48438 v 0.99805 l 4.990234,4.49414 c -0.997776,1.49742 -1.994492,2.49311 -2.49414,3.99023 -5.852712,9.2488 -10.820654,18.89244 -14.964844,28.8125 l 28.451168,35.10742 c 3.84653,-13.58647 9.47994,-26.71238 16.95704,-38.96484 l 59.38867,52.90234 c 5.48974,4.48954 5.99001,12.97601 1.49804,18.46485 -1.49742,1.99555 -3.49381,3.49332 -5.99023,3.99023 l -34.29102,9.95703 17.03711,21.02344 c 5.9572,7.47831 14.8892,11.60742 24.21485,11.60742 l 146.16797,-0.25781 c 9.32473,0 18.16176,-4.38425 24.12109,-11.60742 l 16.00195,-20.14258 -35.04492,-10.07813 c -6.98595,-1.99585 -10.97985,-8.98474 -9.48242,-15.9707 0.50116,-1.99586 1.49673,-3.99476 2.99414,-5.49219 l 60.38867,-54.39648 c 7.35044,12.10666 13.19793,25.72188 17.22852,40.50781 l 29.01562,-36.53515 c -4.68362,-10.93455 -10.30189,-21.42636 -16.79883,-31.41993 l 4.99024,-4.49414 v -0.99804 c 0,-2.4949 0.49749,-4.98918 2.49609,-7.48438 5.98666,-5.49096 13.47443,-9.9826 22.45899,-15.47265 1.49741,-0.999 2.99389,-1.49637 4.48828,-2.49415 2.99485,-1.49742 5.49147,-2.99542 8.48633,-4.99218 0.49812,-0.49844 1.49787,-0.99832 2.49414,-1.9961 0.50116,-0.49964 1,-0.49961 1,-0.99804 6.98596,-5.98909 8.4826,-15.97146 3.49218,-22.45899 -2.49672,-3.49419 -6.98623,-5.48828 -11.47851,-5.48828 -3.99415,0 -7.4875,1.49729 -10.98047,3.99219 -0.49813,0.49965 -0.49687,0.49961 -0.99805,0.99805 -0.99625,0.49934 -1.49484,1.49644 -2.49414,1.99609 -2.49672,2.4952 -4.49272,4.49113 -6.48828,6.98633 -0.99929,0.99777 -1.99476,2.49606 -3.49219,3.49414 -6.989,7.48651 -13.47701,13.47483 -19.96484,17.96679 -1.49743,0.99778 -2.99476,1.4961 -4.49219,1.4961 -0.99626,0 -1.99593,0.002 -2.99219,-0.49805 h -1 l -5.98828,3.99219 C 391.98288,274.68201 384.99573,268.69252 378.00977,262.70312 348.06431,239.24671 311.63171,224.7735 273.70312,221.2793 l -0.5,-6.48633 c -0.49843,-0.49844 -0.4987,-0.49871 -0.99804,-0.99805 -1.49743,-1.49742 -3.49254,-2.99531 -3.99219,-6.48828 -0.49965,-7.98495 0.50027,-16.97036 1.49805,-26.95117 v -0.49805 c 0,-1.49741 0.4984,-3.49585 0.99804,-4.99023 0.49935,-2.99484 0.99645,-5.98945 1.4961,-9.48242 v -2.99415 -1.49804 c 0,-8.98455 -6.98732,-16.46875 -15.4707,-16.46875 z m -19.9629,117.28125 -4.49218,79.85156 c -0.49813,6.98808 -5.9881,12.97461 -13.47461,12.97461 -1.99556,0 -4.49086,-0.49906 -5.98828,-1.49805 l -66.37696,-47.41015 c 20.46187,-20.46187 45.91452,-34.436 74.36133,-40.92383 5.48975,-0.99899 10.48096,-1.99637 15.9707,-2.99414 z m 38.92774,0.5 c 34.43438,3.99232 65.87824,19.46191 89.83398,43.41797 l -65.3789,46.41406 c -5.48975,3.49298 -12.97679,2.49439 -17.46875,-2.99414 -1.49591,-1.49743 -1.9948,-3.49273 -2.49414,-5.48828 z"
       transform="matrix(0.75000002,0,0,-0.75000002,-108.02574,269.80802)"
       id="path14"
       inkscape:connector-curvature="0" /></g></svg>